<svg xmlns="http://www.w3.org/2000/svg" xmlns:xlink="http://www.w3.org/1999/xlink" viewBox="0 0 60 16"><defs><path id="a" d="M5.605 7.253H.025V.04h5.58v7.213z"/></defs><g fill="none" fill-rule="evenodd"><path fill="#888" d="M56.063 14.47c-.77.033-1.66-.234-2.354-.775-.123-.096-.15-.268-.056-.388l.294-.39c.09-.116.265-.137.384-.048.403.304.836.515 1.386.585.645.08 1-.187 1.077-.31.214-.344.107-.585-.08-.725-.314-.235-1.102-.4-1.51-.544-.52-.184-1.11-.456-1.296-1.04-.17-.537.02-1.05.205-1.317.393-.57 1.06-.736 1.408-.766.53-.046 1.33.033 2.214.58.128.078.17.247.086.373l-.27.414c-.08.125-.247.16-.373.08-.723-.45-1.232-.48-1.572-.448-.15.014-.435.09-.6.286-.055.064-.18.296-.046.494.174.262.738.402 1.143.52.636.19 1.128.357 1.463.695.576.582.505 1.503.015 2.053-.28.314-.737.637-1.52.67m-27.3-.98c-1.02 0-1.8-.853-1.8-1.884 0-1.034.737-1.883 1.75-1.883 1.03 0 1.83.802 1.83 1.883 0 .982-.67 1.883-1.78 1.883m-.036-4.767c-1.446 0-2.847 1.19-2.836 2.883.012 1.65 1.235 2.883 2.87 2.883 1.694 0 2.867-1.38 2.867-2.884 0-1.707-1.31-2.883-2.9-2.883m21.43 4.756c-.94-.028-1.652-.783-1.652-1.856 0-1.107.637-1.89 1.692-1.89.962 0 1.79.79 1.79 1.87s-.856 1.903-1.83 1.875m2.56-6.788h-.484c-.155 0-.28.124-.28.277V9.44c-.48-.455-1.113-.72-1.81-.72-1.46 0-2.722 1.23-2.722 2.883 0 1.695 1.277 2.884 2.716 2.884.736 0 1.356-.284 1.816-.732v.338c0 .153.126.277.28.277h.486c.155 0 .28-.124.28-.277V6.97c0-.154-.125-.278-.28-.278"/><g transform="translate(36 8.682)"><mask id="b" fill="#fff"><use xlink:href="#a"/></mask><path fill="#888" d="M2.83 4.797c-.956.007-1.787-.812-1.787-1.844 0-1.177.89-1.902 1.763-1.902 1.004 0 1.716.76 1.716 1.893 0 1.048-.628 1.846-1.693 1.854m0-4.757c-.664 0-1.286.282-1.76.746v-.35C1.07.28.946.157.79.157H.306c-.155 0-.28.124-.28.277v6.54c0 .154.125.278.28.278H.79c.155 0 .28-.124.28-.277v-1.89c.473.45 1.108.72 1.84.72 1.296 0 2.695-1.096 2.695-2.883C5.605 1.196 4.337.04 2.83.04" mask="url(#b)"/></g><path fill="#888" d="M22.963 8.723c-.7 0-1.203.29-1.512.563V6.962c0-.15-.122-.27-.273-.27h-.497c-.152 0-.274.12-.274.27V14.1c0 .15.124.273.277.273h.49c.154 0 .278-.123.278-.274v-2.955c.013-.305.105-.692.43-1.022.268-.27.616-.407 1.037-.41 1.085-.003 1.317.838 1.327 1.325.012.617.006 2.372.002 3.057 0 .154.126.278.282.278h.48c.156 0 .283-.125.283-.278v-3.13c0-.993-.658-2.242-2.327-2.242m21.204 4.764c-.39.002-.95-.11-1.15-.616-.055-.134-.19-.754.585-1.04.594-.22 1.61-.075 2.186.05v.002c0 .092 0 .21-.002.345-.056 1.158-1.365 1.26-1.62 1.26zm2.642-2.606c0-.272-.064-1.276-1.022-1.808-.84-.467-2.134-.4-3.283.15-.127.06-.183.22-.107.4l.16.376c.063.146.233.207.377.135.91-.453 1.607-.403 2.01-.308.685.162.82.78.82 1.046-.647-.132-1.792-.275-2.753.122-1.163.48-1.32 1.734-.945 2.403.42.748 1.26 1.12 2.173 1.093.873-.026 1.387-.42 1.538-.54v.148c0 .153.125.277.28.277h.474c.155 0 .28-.124.28-.276l-.003-3.216zM35.397 9.553v-.434c0-.154-.126-.278-.282-.278h-1.49V7.52c0-.15-.124-.273-.277-.273h-.492c-.153 0-.277.123-.277.274v1.32h-.448c-.156 0-.282.124-.282.278v.434c0 .153.126.278.282.278h.45v3c0 .61.265 1.07.59 1.306.304.224.63.3.905.317.416.026.663-.03.81-.073.246-.07.49-.127.49-.36 0-.107.002-.21 0-.466 0-.197-.222-.322-.384-.25-.467.21-.815.193-1.08.07-.265-.122-.286-.4-.286-.702V9.83h1.49c.155 0 .28-.125.28-.278m23.81 5c-.352 0-.593-.283-.593-.608s.263-.585.593-.585c.33 0 .57.28.57.606 0 .325-.24.585-.57.585m-.01-1.336c-.415 0-.763.323-.763.73 0 .43.327.752.762.752s.762-.322.762-.75c0-.41-.348-.753-.762-.732"/><path fill="#888" d="M59.162 13.89h-.088v-.214h.11c.108 0 .152.043.152.107 0 .086-.087.108-.174.108m.326.258c-.022-.086-.065-.15-.13-.172.086-.02.143-.107.143-.17 0-.087-.027-.142-.075-.182-.044-.038-.09-.056-.242-.056H58.9v.774h.174v-.28h.066c.087 0 .13.022.152.108.022.086.044.15.065.172h.196c-.02-.043-.043-.086-.065-.194"/><path fill="#E35A28" d="M4.794 2.11L9.542 0l4.748 2.11-1.57 9.17-3.178 1.8-3.18-1.8"/><path fill="#D34822" d="M4.794 2.11l4.748 2.243v8.727l-3.18-1.8"/><path fill="#F37752" d="M9.542 4.353L14.29 2.11l-1.57 9.17-3.178 1.8"/><path fill="#FFF" d="M12.456 8.22l-.28 2.146-1.133.614.07-1.88M7.513 4.37l.182 2.083 1.237.574-.053-2.103"/><path fill="#ECC132" d="M11.862 7.366l2.244-2.372L18.04 6.38l.5 1.978-2.3 5.865-2.09 1.557-2.705-1.744"/><path fill="#D1A025" d="M11.862 7.366l4.2 1.477-1.913 6.937-2.705-1.744"/><path fill="#F9D364" d="M16.062 8.842l1.98-2.463.497 1.978-2.3 5.865-2.09 1.557"/><path fill="#FFF" d="M13.15 14.887l.288-1.782.818.325-.388 1.912M16.874 10.332l-.445 1.448-.718.358.36-1.373"/><path fill="#42B0A8" d="M2.426 5.833L1.493 7.21l-.745-.13L0 7.493l1.816 5.43 2.34 2.77 3.628-1.854-.102-4.615L5.25 7.26"/><path fill="#5FC4BB" d="M3.205 11.322L5.25 7.26l2.432 1.965.102 4.614-3.628 1.853M1.493 7.21l-.837.477.454 1.722.545-1.137"/><path fill="#2A9D95" d="M0 7.493l.656.194.454 1.722 2.095 1.912.95 4.37-2.34-2.77"/><path fill="#FFF" d="M5.242 14.902l-.223-1.736-.702.31.317 1.725M5.97 11.17l.165 1.07.996-.423-.112-1.114"/></g></svg>